<svg xmlns="http://www.w3.org/2000/svg" viewBox="0 0 24 24"><path fill="#000" fill-rule="nonzero" d="M12.5 1C18.299 1 23 5.59 23 11.252c0 4.552-3.04 8.41-7.245 9.747l.003-.01s-.708-.324-.693-.903c.017-.637 0-2.123 0-2.669 0-.936-.607-1.6-.607-1.6s4.762.052 4.762-4.908c0-1.914-1.025-2.91-1.025-2.91s.538-2.044-.186-2.91c-.812-.086-2.267.757-2.888 1.151 0 0-.984-.394-2.621-.394s-2.621.394-2.621.394c-.621-.394-2.075-1.237-2.888-1.152-.724.867-.186 2.91-.186 2.91s-1.025.996-1.025 2.91c0 4.961 4.762 4.91 4.762 4.91s-.48.528-.584 1.307c-.333.11-.822.246-1.217.246-1.033 0-1.82-.981-2.108-1.435-.284-.447-.866-.823-1.409-.823-.357 0-.532.175-.532.375s.501.338.832.708c.697.78.685 2.535 3.17 2.535.269 0 .82-.065 1.234-.12-.002.552-.003 1.135.006 1.476.015.579-.693.903-.693.903l.003.01C5.04 19.661 2 15.804 2 11.252 2 5.59 6.701 1 12.5 1Z"/></svg>
