<svg xmlns="http://www.w3.org/2000/svg" width="64" height="64">
    <g fill="none" fill-rule="evenodd">
        <path fill="#FFF"
              d="M32 63.43c17.673 0 28-13.19 28-30.43C60 15.76 48.673 5 31 5 13.327 5 3 17.76 3 35c0 17.24 11.327 28.43 29 28.43Z"/>
        <path fill="#000"
              d="M0 32.096c0 14.14 9.168 26.13 21.883 30.363 1.6.296 2.188-.696 2.188-1.541 0-.763-.032-3.284-.045-5.956-8.903 1.936-10.78-3.777-10.78-3.777-1.455-3.7-3.553-4.683-3.553-4.683-2.903-1.988.221-1.944.221-1.944 3.213.224 4.904 3.295 4.904 3.295 2.856 4.892 7.489 3.476 9.313 2.66.289-2.068 1.115-3.48 2.032-4.28-7.108-.807-14.58-3.552-14.58-15.814 0-3.493 1.252-6.349 3.297-8.588-.333-.808-1.43-4.06.308-8.468 0 0 2.687-.86 8.803 3.28 2.551-.707 5.288-1.064 8.006-1.076 2.72.012 5.46.368 8.016 1.076 6.107-4.138 8.792-3.28 8.792-3.28 1.74 4.408.648 7.663.315 8.468 2.052 2.24 3.293 5.095 3.293 8.588 0 12.29-7.488 14.993-14.611 15.785 1.148.992 2.173 2.94 2.173 5.924 0 4.279-.037 7.728-.037 8.78 0 .852.577 1.847 2.2 1.535C54.845 58.209 64 46.216 64 32.085c0-17.67-14.327-31.998-32-31.998L32 .097C14.329.097 0 14.424 0 32.096Z"/>
    </g>
</svg>
