<svg xmlns="http://www.w3.org/2000/svg" viewBox="0 0 24 24"><defs><radialGradient id="a" cx="37.175%" cy="100.072%" r="124.654%" fx="37.175%" fy="100.072%"><stop offset="0%" stop-color="#FD5"/><stop offset="32.8%" stop-color="#FF543F"/><stop offset="34.8%" stop-color="#FC5245"/><stop offset="50.4%" stop-color="#E64771"/><stop offset="64.3%" stop-color="#D53E91"/><stop offset="76.1%" stop-color="#CC39A4"/><stop offset="84.1%" stop-color="#C837AB"/></radialGradient><radialGradient id="b" cx="16.092%" cy="-1.248%" r="82.77%" fx="16.092%" fy="-1.248%"><stop offset="0%" stop-color="#4168C9"/><stop offset="99.9%" stop-color="#4168C9" stop-opacity="0"/></radialGradient></defs><g fill="none" fill-rule="nonzero" transform="translate(3 2)"><path fill="url(#a)" d="M14.784 18.99 4.234 19A4.233 4.233 0 0 1 .01 14.784L0 4.234A4.233 4.233 0 0 1 4.216.01L14.766 0a4.233 4.233 0 0 1 4.224 4.216l.01 10.55a4.232 4.232 0 0 1-4.216 4.224Z"/><path fill="url(#b)" d="M14.784 18.99 4.234 19A4.233 4.233 0 0 1 .01 14.784L0 4.234A4.233 4.233 0 0 1 4.216.01L14.766 0a4.233 4.233 0 0 1 4.224 4.216l.01 10.55a4.232 4.232 0 0 1-4.216 4.224Z"/><path fill="#FFF" d="M9.5 13C7.57 13 6 11.43 6 9.5S7.57 6 9.5 6 13 7.57 13 9.5 11.43 13 9.5 13Zm0-6A2.503 2.503 0 0 0 7 9.5C7 10.879 8.121 12 9.5 12S12 10.879 12 9.5 10.879 7 9.5 7Z"/><circle cx="13" cy="6" r="1" fill="#FFF"/><path fill="#FFF" d="M12.5 16h-6C4.57 16 3 14.43 3 12.5v-6C3 4.57 4.57 3 6.5 3h6C14.43 3 16 4.57 16 6.5v6c0 1.93-1.57 3.5-3.5 3.5Zm-6-12A2.503 2.503 0 0 0 4 6.5v6C4 13.879 5.122 15 6.5 15h6c1.379 0 2.5-1.121 2.5-2.5v-6C15 5.122 13.879 4 12.5 4h-6Z"/></g></svg>
