<?xml version="1.0" encoding="UTF-8"?>
<svg width="24px" height="24px" viewBox="0 0 24 24" version="1.1" xmlns="http://www.w3.org/2000/svg" xmlns:xlink="http://www.w3.org/1999/xlink">
    <title>instagram</title>
    <g id="Page-1" stroke="none" stroke-width="1" fill="none" fill-rule="evenodd">
        <g id="instagram">
            <rect id="Rectangle" fill="#FFFFFF" x="0" y="2" width="24" height="20" rx="8"></rect>
            <path d="M11.9997999,0 C8.74116804,0 8.33223854,0.013604308 7.05223321,0.0720228072 C5.77502876,0.130441306 4.90275254,0.333305547 4.13931078,0.629799436 C3.35026092,0.936696621 2.68124906,1.3468265 2.01423784,2.01423784 C1.3468265,2.68124906 0.936696621,3.35066104 0.629799436,4.13971091 C0.333705673,4.90275254 0.130441306,5.77502876 0.0720228072,7.05263333 C0.0140044347,8.33183842 0,8.74076791 0,12.0002001 C0,15.258832 0.0140044347,15.6677615 0.0720228072,16.9477668 C0.130441306,18.2249712 0.333305547,19.0972475 0.630199563,19.8606892 C0.936696621,20.6497391 1.3468265,21.3187509 2.01423784,21.9857622 C2.68124906,22.6531735 3.35066104,23.0633034 4.13971091,23.3702006 C4.90275254,23.6662943 5.77502876,23.8695587 7.05263333,23.9279772 C8.33223854,23.9859956 8.74116804,24 12.0002001,24 C15.258832,24 15.6677615,23.9859956 16.9477668,23.9279772 C18.2249712,23.8695587 19.0972475,23.6666945 19.8606892,23.3702006 C20.6497391,23.0633034 21.3187509,22.6531735 21.9857622,21.9857622 C22.6531735,21.3187509 23.0633034,20.649339 23.3702006,19.8602891 C23.6666945,19.0972475 23.8695587,18.2249712 23.9279772,16.9473667 C23.9863957,15.6677615 24,15.258832 24,12.0002001 C24,8.74116804 23.9863957,8.33223854 23.9279772,7.05223321 C23.8695587,5.77502876 23.6666945,4.90275254 23.3702006,4.13931078 C23.0633034,3.35026092 22.6531735,2.68124906 21.9857622,2.01383772 C21.3187509,1.3468265 20.649339,0.936696621 19.8602891,0.629799436 C19.0972475,0.333305547 18.2249712,0.130441306 16.9473667,0.0724229339 C15.6681616,0.013604308 15.2592321,0.000400126707 12.0006002,0.000400126707 L11.9997999,0 Z M11.9997999,2.16228472 C15.2040146,2.16228472 15.5837348,2.17428852 16.8493356,2.2323069 C18.018906,2.28552375 18.6543072,2.48078558 19.0772411,2.64523766 C19.6374185,2.86290659 20.0371451,3.12298895 20.456878,3.54312199 C20.8770111,3.9628549 21.1370934,4.36258148 21.3547623,4.92275887 C21.5188143,5.3456928 21.7148764,5.98109401 21.7680932,7.1510645 C21.8257115,8.41626515 21.8377153,8.79558527 21.8377153,12.0002001 C21.8377153,15.2040146 21.8257115,15.5837348 21.7680932,16.8489355 C21.7144763,18.018906 21.5192144,18.6543072 21.3547623,19.0772411 C21.1370934,19.6374185 20.8770111,20.0371451 20.456878,20.456878 C20.0371451,20.8770111 19.6374185,21.1370934 19.0772411,21.3547623 C18.6543072,21.5188143 18.018906,21.7148764 16.8489355,21.7676931 C15.5837348,21.8257115 15.2044147,21.8377153 12.0002001,21.8377153 C8.79558527,21.8377153 8.41626515,21.8257115 7.15066438,21.7676931 C5.98109401,21.7144763 5.3456928,21.5192144 4.92275887,21.3547623 C4.36258148,21.1370934 3.9628549,20.8770111 3.54312199,20.456878 C3.12298895,20.0371451 2.86290659,19.6374185 2.64523766,19.0772411 C2.48118571,18.6543072 2.28512362,18.018906 2.2323069,16.8489355 C2.17428852,15.5837348 2.16228472,15.2044147 2.16228472,12.0002001 C2.16228472,8.7959854 2.17428852,8.41626515 2.2323069,7.15066438 C2.28552375,5.98109401 2.48078558,5.3456928 2.64523766,4.92275887 C2.86290659,4.36258148 3.12298895,3.9628549 3.54312199,3.54312199 C3.9628549,3.12298895 4.36258148,2.86290659 4.92275887,2.64523766 C5.3456928,2.48118571 5.98109401,2.28512362 7.1510645,2.2323069 C8.41626515,2.17428852 8.79558527,2.16228472 12.0002001,2.16228472 L11.9997999,2.16228472 Z" id="Shape" fill="#89C0FB"></path>
            <path d="M12.0886755,15.8634284 C9.90624117,15.8634284 8.13657159,14.0941542 8.13657159,11.9113245 C8.13657159,9.72809941 9.90584581,7.95882519 12.0890709,7.95882519 C14.2715052,7.95882519 16.0411748,9.72809941 16.0411748,11.9113245 C16.0411748,14.0937588 14.2719006,15.8634284 12.0890709,15.8634284 L12.0886755,15.8634284 Z M12.0886755,5.8222536 C8.72606608,5.8222536 6,8.54831968 6,11.9109291 C6,15.2739339 8.72606608,18 12.0886755,18 C15.4516803,18 18.1777464,15.2739339 18.1777464,11.9113245 C18.1777464,8.54831968 15.4516803,5.8222536 12.0890709,5.8222536 L12.0886755,5.8222536 Z M18.6162101,6.76757978 C19.3804562,6.76757978 20,6.14803594 20,5.38378989 C20,4.61954384 19.3804562,4 18.6162101,4 C17.8519641,4 17.2324202,4.61954384 17.2324202,5.38378989 C17.2324202,6.14803594 17.8519641,6.76757978 18.6162101,6.76757978 Z" id="Shape" fill="#89C0FB"></path>
        </g>
    </g>
</svg>