<svg xmlns="http://www.w3.org/2000/svg" width="60" height="61">
    <g fill="none" fill-rule="evenodd">
        <rect width="50" height="52" x="5" y="4" fill="#FFF" rx="8"/>
        <path fill="#0A0B09"
              d="M29.99.019c-8.144 0-9.166.034-12.365.18-3.192.146-5.372.653-7.28 1.394-1.972.767-3.644 1.792-5.311 3.46-1.668 1.667-2.693 3.34-3.46 5.312-.74 1.907-1.248 4.087-1.394 7.28C.035 20.842 0 21.864 0 30.01c0 8.144.035 9.166.18 12.365.146 3.192.653 5.372 1.395 7.28.766 1.972 1.791 3.644 3.459 5.311 1.667 1.668 3.34 2.693 5.312 3.46 1.907.74 4.087 1.248 7.28 1.394 3.198.145 4.22.18 12.365.18 8.144 0 9.166-.035 12.365-.18 3.192-.146 5.372-.653 7.28-1.394 1.972-.767 3.644-1.792 5.311-3.46 1.668-1.667 2.693-3.34 3.46-5.312.741-1.907 1.248-4.087 1.394-7.28.146-3.198.18-4.22.18-12.364 0-8.145-.034-9.167-.18-12.366-.146-3.192-.653-5.372-1.394-7.28-.767-1.972-1.792-3.644-3.46-5.312-1.667-1.667-3.34-2.692-5.312-3.459C47.728.852 45.548.345 42.355.2 39.158.053 38.136.02 29.992.02L29.99.019Zm0 5.404c8.008 0 8.957.03 12.12.175 2.923.133 4.511.621 5.568 1.032 1.4.544 2.399 1.194 3.448 2.244 1.05 1.049 1.7 2.048 2.244 3.448.41 1.057.9 2.645 1.033 5.569.144 3.162.174 4.11.174 12.119 0 8.007-.03 8.956-.174 12.118-.134 2.924-.622 4.512-1.033 5.569-.544 1.4-1.194 2.399-2.244 3.448-1.049 1.05-2.048 1.7-3.448 2.244-1.057.41-2.645.9-5.569 1.032-3.162.145-4.11.175-12.118.175-8.009 0-8.957-.03-12.12-.175-2.923-.133-4.511-.621-5.568-1.032-1.4-.544-2.399-1.194-3.448-2.244-1.05-1.049-1.7-2.048-2.244-3.448-.41-1.057-.9-2.645-1.032-5.569-.145-3.162-.175-4.11-.175-12.118s.03-8.957.175-12.12c.133-2.923.621-4.511 1.032-5.568.544-1.4 1.194-2.399 2.244-3.448 1.049-1.05 2.048-1.7 3.448-2.244 1.057-.41 2.645-.9 5.569-1.032 3.162-.145 4.11-.175 12.119-.175h-.001Z"/>
        <path fill="#0A0B09"
              d="M29.99 40.006c-5.52 0-9.996-4.475-9.996-9.996 0-5.522 4.475-9.997 9.997-9.997 5.52 0 9.996 4.475 9.996 9.997 0 5.52-4.475 9.996-9.996 9.996h-.001Zm0-25.397c-8.505 0-15.4 6.895-15.4 15.4 0 8.506 6.895 15.401 15.4 15.401 8.506 0 15.401-6.895 15.401-15.4 0-8.506-6.895-15.401-15.4-15.401h-.001ZM46.5 17a3.5 3.5 0 1 0 0-7 3.5 3.5 0 0 0 0 7Z"/>
    </g>
</svg>
