<svg xmlns="http://www.w3.org/2000/svg" viewBox="0 0 24 24"><g fill="none" fill-rule="nonzero"><path fill="#0288D1" d="M21 18.361A2.638 2.638 0 0 1 18.361 21H4.64A2.639 2.639 0 0 1 2 18.361V4.64A2.639 2.639 0 0 1 4.639 2H18.36A2.638 2.638 0 0 1 21 4.639V18.36Z"/><path fill="#FFF" d="M5 8.792h2.708V18H5V8.792Zm1.346-1.084h-.015C5.523 7.708 5 7.106 5 6.354 5 5.585 5.539 5 6.362 5c.824 0 1.331.585 1.346 1.354 0 .751-.522 1.354-1.362 1.354ZM18 18h-2.708v-4.929c0-1.19-.664-2.003-1.73-2.003-.812 0-1.252.548-1.466 1.078-.078.19-.054.714-.054.979V18H9.333V8.792h2.709v1.417c.39-.605 1.002-1.417 2.566-1.417 1.938 0 3.391 1.218 3.391 3.94L18 18Z"/></g></svg>
