<svg viewBox="0 0 30 30" xmlns="http://www.w3.org/2000/svg" xmlns:xlink="http://www.w3.org/1999/xlink"><defs><path id="a" d="M14.967 24.908h14.966V0H0v24.908h14.967z"/></defs><g transform="translate(0 3)" fill="none" fill-rule="evenodd"><mask id="b" fill="#fff"><use xlink:href="#a"/></mask><path d="M29.933 2.949a12.05 12.05 0 01-3.527.99 6.282 6.282 0 002.7-3.48c-1.186.721-2.5 1.245-3.9 1.527A6.067 6.067 0 0020.724 0c-3.392 0-6.141 2.815-6.141 6.288 0 .493.054.973.159 1.433-5.104-.262-9.63-2.766-12.658-6.57a6.373 6.373 0 00-.832 3.161 6.326 6.326 0 002.732 5.234 6.008 6.008 0 01-2.781-.786v.079c0 3.046 2.116 5.588 4.925 6.165a6.019 6.019 0 01-2.773.108c.782 2.498 3.05 4.316 5.737 4.367A12.14 12.14 0 010 22.083a17.089 17.089 0 009.414 2.825c11.296 0 17.473-9.582 17.473-17.891 0-.273-.006-.544-.018-.813 1.2-.887 2.24-1.994 3.064-3.255" fill="#5FA9DD" mask="url(#b)"/></g></svg>
