<?xml version="1.0" encoding="UTF-8"?>
<svg width="24px" height="24px" viewBox="0 0 24 24" version="1.1" xmlns="http://www.w3.org/2000/svg" xmlns:xlink="http://www.w3.org/1999/xlink">
    <title>github-icon</title>
    <g id="Page-1" stroke="none" stroke-width="1" fill="none" fill-rule="evenodd">
        <g id="github-icon" fill="#89C0FB">
            <path d="M0,11.7934478 C0,17.0028362 3.43786054,21.4206033 8.20582114,22.980266 C8.80595989,23.0894704 9.02653075,22.7239452 9.02653075,22.412359 C9.02653075,22.1312424 9.01456848,21.2025998 9.00969357,20.2182497 C5.67105617,20.9315047 4.96726936,18.8265938 4.96726936,18.8265938 C4.4215796,17.463639 3.63495684,17.1011718 3.63495684,17.1011718 C2.54627726,16.3687581 3.71779279,16.3848588 3.71779279,16.3848588 C4.9224952,16.4675726 5.55675831,17.5990023 5.55675831,17.5990023 C6.62773823,19.4014642 8.36481816,18.8796854 9.04910533,18.578968 C9.1571783,17.8170058 9.46722249,17.2965533 9.81090355,17.001952 C7.14545352,16.7047348 4.34361856,15.6934152 4.34361856,11.1755072 C4.34361856,9.8887081 4.81310975,8.83649211 5.57978288,8.01137999 C5.45491022,7.7137575 5.04388043,6.51530932 5.69539321,4.89168614 C5.69539321,4.89168614 6.70299932,4.57446286 8.99641882,6.10015578 C9.95310088,5.83948741 10.9793066,5.70806634 11.9984625,5.70371879 C13.0184434,5.70806634 14.0464491,5.83904529 15.0044812,6.10015578 C17.2947882,4.57534711 18.3014943,4.89168614 18.3014943,4.89168614 C18.9539071,6.51575144 18.5446773,7.71504703 18.4197671,8.01141684 C19.1891027,8.83649211 19.654619,9.8887081 19.654619,11.1755072 C19.654619,15.7038419 16.8465591,16.6994661 14.1753342,16.9914884 C14.6058636,17.3570136 14.9903064,18.0746162 14.9903064,19.1738446 C14.9903064,20.7504553 14.9765817,22.0211169 14.9765817,22.4088588 C14.9765817,22.7226188 15.1927276,23.0894704 15.8012662,22.9745553 C20.5665269,21.414082 24,16.9957991 24,11.7895056 C24,5.27942805 18.6275132,0 12.000225,0 L11.9993625,0.00394226376 C5.37338675,0.00397910735 0,5.28252291 0,11.7934478 Z" id="Path"></path>
        </g>
    </g>
</svg>