<svg viewBox="0 0 30 30" xmlns="http://www.w3.org/2000/svg" xmlns:xlink="http://www.w3.org/1999/xlink"><defs><path id="a" d="M0 28.967h29.91V0H0v28.967z"/></defs><g fill="none" fill-rule="evenodd"><mask id="b" fill="#fff"><use xlink:href="#a"/></mask><path d="M14.955 0C6.697 0 0 6.649 0 14.85c0 6.561 4.285 12.127 10.228 14.091.748.136 1.021-.322 1.021-.715 0-.353-.013-1.288-.02-2.527-4.16.897-5.038-1.99-5.038-1.99-.68-1.715-1.66-2.173-1.66-2.173-1.358-.92.102-.903.102-.903 1.501.105 2.29 1.531 2.29 1.531 1.335 2.269 3.501 1.614 4.353 1.234.136-.96.523-1.615.95-1.985-3.321-.376-6.812-1.649-6.812-7.34 0-1.621.582-2.947 1.54-3.985-.155-.376-.668-1.886.146-3.93 0 0 1.255-.4 4.112 1.522a14.417 14.417 0 013.744-.5c1.27.006 2.55.17 3.744.5 2.856-1.921 4.11-1.522 4.11-1.522.816 2.044.302 3.554.148 3.93.958 1.038 1.537 2.364 1.537 3.985 0 5.705-3.496 6.96-6.828 7.328.537.459 1.015 1.365 1.015 2.75 0 1.986-.018 3.587-.018 4.075 0 .397.269.858 1.028.714 5.938-1.968 10.218-7.53 10.218-14.09C29.91 6.65 23.215 0 14.955 0" fill="#191717" mask="url(#b)"/></g></svg>
