<?xml version="1.0" encoding="UTF-8"?>
<svg width="26px" height="24px" viewBox="0 0 26 24" version="1.1" xmlns="http://www.w3.org/2000/svg" xmlns:xlink="http://www.w3.org/1999/xlink">
    <title>github-mark</title>
    <g id="Page-1" stroke="none" stroke-width="1" fill="none" fill-rule="evenodd">
        <g id="github-mark" transform="translate(-0.000000, 0.000000)" fill="#000000">
            <path d="M12.5321003,0 C5.60217254,0 0,5.499977 0,12.3041986 C0,17.7431758 3.58950503,22.3471566 8.56909995,23.9766497 C9.19167757,24.0991492 9.41972517,23.7119008 9.41972517,23.3861522 C9.41972517,23.1009034 9.39920345,22.1231575 9.39920345,21.1044118 C5.91307657,21.8379087 5.18712079,19.6376679 5.18712079,19.6376679 C4.62687789,18.2116738 3.79677439,17.8451754 3.79677439,17.8451754 C2.65576685,17.0914285 3.87988734,17.0914285 3.87988734,17.0914285 C5.14556431,17.1729282 5.80969842,18.3544233 5.80969842,18.3544233 C6.92992771,20.2284154 8.73506934,19.6989176 9.46128165,19.372919 C9.56491632,18.5784223 9.89711164,18.0284246 10.2498287,17.7229259 C7.46939238,17.4376771 4.54402145,16.3784315 4.54402145,11.6522013 C4.54402145,10.3077069 5.04167311,9.2077115 5.83022014,8.35221508 C5.70580722,8.04671635 5.26997723,6.78347163 5.95488957,5.0927287 C5.95488957,5.0927287 7.01304067,4.76673007 9.39894693,6.35572342 C10.4204382,6.0863902 11.4738857,5.9493787 12.5321003,5.94822513 C13.5902513,5.94822513 14.6689242,6.09097453 15.6649971,6.35572342 C18.0511598,4.76673007 19.1093109,5.0927287 19.1093109,5.0927287 C19.7942233,6.78347163 19.3581368,8.04671635 19.2337238,8.35221508 C20.0430491,9.2077115 20.5201791,10.3077069 20.5201791,11.6522013 C20.5201791,16.3784315 17.5948081,17.4171772 14.7935936,17.7229259 C15.2502018,18.1099243 15.6442188,18.8431712 15.6442188,20.0044164 C15.6442188,21.6544095 15.6236971,22.9786539 15.6236971,23.3859022 C15.6236971,23.7119008 15.8520012,24.0991492 16.4743223,23.9768997 C21.4539172,22.3469066 25.0434783,17.7431758 25.0434783,12.3041986 C25.063944,5.499977 19.4412497,0 12.5321003,0 Z" id="Path"></path>
        </g>
    </g>
</svg>