<?xml version="1.0" encoding="UTF-8"?>
<svg width="26px" height="24px" viewBox="0 0 26 24" version="1.1" xmlns="http://www.w3.org/2000/svg" xmlns:xlink="http://www.w3.org/1999/xlink">
    <title>instagram</title>
    <defs>
        <radialGradient cx="37.1748248%" cy="100.072175%" fx="37.1748248%" fy="100.072175%" r="124.653625%" id="radialGradient-1">
            <stop stop-color="#FFDD55" offset="0%"></stop>
            <stop stop-color="#FF543F" offset="32.8%"></stop>
            <stop stop-color="#FC5245" offset="34.8%"></stop>
            <stop stop-color="#E64771" offset="50.4%"></stop>
            <stop stop-color="#D53E91" offset="64.3%"></stop>
            <stop stop-color="#CC39A4" offset="76.1%"></stop>
            <stop stop-color="#C837AB" offset="84.1%"></stop>
        </radialGradient>
        <radialGradient cx="16.0915127%" cy="-1.24849269%" fx="16.0915127%" fy="-1.24849269%" r="82.770185%" id="radialGradient-2">
            <stop stop-color="#4168C9" offset="0%"></stop>
            <stop stop-color="#4168C9" stop-opacity="0" offset="99.9%"></stop>
        </radialGradient>
    </defs>
    <g id="Page-1" stroke="none" stroke-width="1" fill="none" fill-rule="evenodd">
        <g id="instagram" transform="translate(1.000000, 0.000000)" fill-rule="nonzero">
            <path d="M18.6748083,23.9873378 L5.34851146,24 C2.41672615,24.002663 0.0159937776,21.6065947 0.0126622034,18.6748093 L0,5.34851174 C-0.002663038,2.41672628 2.39340514,0.0159937784 5.32519044,0.012662204 L18.6514873,0 C21.5832726,-0.00266303814 23.984005,2.39340526 23.9873365,5.32519072 L24,18.6514883 C24.0033281,21.58394 21.6065936,23.9846725 18.6748083,23.9873378 Z" id="Path" fill="url(#radialGradient-1)"></path>
            <path d="M18.6748083,23.9873378 L5.34851146,24 C2.41672615,24.002663 0.0159937776,21.6065947 0.0126622034,18.6748093 L0,5.34851174 C-0.002663038,2.41672628 2.39340514,0.0159937784 5.32519044,0.012662204 L18.6514873,0 C21.5832726,-0.00266303814 23.984005,2.39340526 23.9873365,5.32519072 L24,18.6514883 C24.0033281,21.58394 21.6065936,23.9846725 18.6748083,23.9873378 Z" id="Path" fill="url(#radialGradient-2)"></path>
            <path d="M12,17 C9.24357143,17 7,14.7571429 7,12 C7,9.24285714 9.24357143,7 12,7 C14.7564286,7 17,9.24285714 17,12 C17,14.7571429 14.7564286,17 12,17 Z M12,8.42857143 C10.0307143,8.42857143 8.42857143,10.0307143 8.42857143,12 C8.42857143,13.9692857 10.0307143,15.5714286 12,15.5714286 C13.9692857,15.5714286 15.5714286,13.9692857 15.5714286,12 C15.5714286,10.0307143 13.9692857,8.42857143 12,8.42857143 Z" id="Shape" fill="#FFFFFF"></path>
            <circle id="Oval" fill="#FFFFFF" cx="17.5" cy="6.5" r="1.5"></circle>
            <path d="M16.6153846,22 L7.38461538,22 C4.41615385,22 2,19.5846154 2,16.6153846 L2,7.38461538 C2,4.41538462 4.41615385,2 7.38461538,2 L16.6153846,2 C19.5838462,2 22,4.41538462 22,7.38461538 L22,16.6153846 C22,19.5846154 19.5838462,22 16.6153846,22 Z M7.38461538,3.53846154 C5.26384615,3.53846154 3.53846154,5.26384615 3.53846154,7.38461538 L3.53846154,16.6153846 C3.53846154,18.7361538 5.26384615,20.4615385 7.38461538,20.4615385 L16.6153846,20.4615385 C18.7361538,20.4615385 20.4615385,18.7361538 20.4615385,16.6153846 L20.4615385,7.38461538 C20.4615385,5.26384615 18.7361538,3.53846154 16.6153846,3.53846154 L7.38461538,3.53846154 Z" id="Shape" fill="#FFFFFF"></path>
        </g>
    </g>
</svg>