<svg viewBox="0 0 30 30" xmlns="http://www.w3.org/2000/svg" xmlns:xlink="http://www.w3.org/1999/xlink">
    <defs>
        <path id="a" d="M14.897 30H0V0h29.793v30z"/>
    </defs>
    <g fill="none" fill-rule="evenodd">
        <mask id="b" fill="#fff">
            <use xlink:href="#a"/>
        </mask>
        <path d="M27.588 0H2.2C.986 0 0 .968 0 2.162v25.673C0 29.03.986 30 2.2 30h25.388c1.215 0 2.205-.97 2.205-2.165V2.162C29.793.968 28.803 0 27.588 0"
              fill="#007AB5" mask="url(#b)"/>
        <path d="M6.628 4.13a2.572 2.572 0 012.56 2.58 2.572 2.572 0 01-2.56 2.58 2.572 2.572 0 01-2.563-2.58 2.571 2.571 0 012.563-2.58zm-2.21 21.434h4.418V11.247H4.417v14.317zM11.608 11.247h4.239v1.956h.058c.59-1.125 2.032-2.312 4.181-2.312 4.475 0 5.302 2.965 5.302 6.82v7.853h-4.416v-6.962c0-1.661-.03-3.797-2.297-3.797-2.3 0-2.651 1.809-2.651 3.677v7.082h-4.416V11.247z"
              fill="#FEFEFE"/>
    </g>
</svg>
