<?xml version="1.0" encoding="UTF-8"?>
<svg width="26px" height="24px" viewBox="0 0 26 24" version="1.1" xmlns="http://www.w3.org/2000/svg" xmlns:xlink="http://www.w3.org/1999/xlink">
    <title>linkedin</title>
    <g id="Page-1" stroke="none" stroke-width="1" fill="none" fill-rule="evenodd">
        <g id="linkedin" transform="translate(1.000000, 0.000000)" fill-rule="nonzero">
            <path d="M24,20.6666667 C24,22.508 22.508,24 20.6666667,24 L3.33333333,24 C1.49266667,24 0,22.508 0,20.6666667 L0,3.33333333 C0,1.492 1.49266667,0 3.33333333,0 L20.6666667,0 C22.508,0 24,1.492 24,3.33333333 L24,20.6666667 Z" id="Path" fill="#0288D1"></path>
            <path d="M4,8.66666667 L7.33333333,8.66666667 L7.33333333,20 L4,20 L4,8.66666667 Z M5.65666667,7.33333333 L5.638,7.33333333 C4.64333333,7.33333333 4,6.592 4,5.666 C4,4.72 4.66333333,4 5.676,4 C6.69,4 7.31466667,4.72 7.33333333,5.666 C7.33333333,6.59133333 6.69,7.33333333 5.65666667,7.33333333 Z M20,20 L16.6666667,20 L16.6666667,13.934 C16.6666667,12.4686667 15.85,11.4686667 14.5386667,11.4686667 C13.538,11.4686667 12.9966667,12.1433333 12.734,12.7953333 C12.638,13.0286667 12.6666667,13.674 12.6666667,14 L12.6666667,20 L9.33333333,20 L9.33333333,8.66666667 L12.6666667,8.66666667 L12.6666667,10.4106667 C13.1473333,9.66666667 13.9,8.66666667 15.8253333,8.66666667 C18.2106667,8.66666667 19.9993333,10.1666667 19.9993333,13.516 L20,20 L20,20 Z" id="Shape" fill="#FFFFFF"></path>
        </g>
    </g>
</svg>