<?xml version="1.0" encoding="UTF-8" standalone="no"?>
<svg width="30px" height="30px" viewBox="0 0 30 30" version="1.1" xmlns="http://www.w3.org/2000/svg" xmlns:xlink="http://www.w3.org/1999/xlink">
    <!-- Generator: Sketch 3.8.3 (29802) - http://www.bohemiancoding.com/sketch -->
    <title>linkedin</title>
    <desc>Created with Sketch.</desc>
    <defs>
        <polygon id="path-1" points="14.8967379 30 0 30 0 0 14.8967379 0 29.7934759 0 29.7934759 30"></polygon>
    </defs>
    <g id="Page-1" stroke="none" stroke-width="1" fill="none" fill-rule="evenodd">
        <g id="linkedin">
            <g id="Group-3">
                <mask id="mask-2" fill="white">
                    <use xlink:href="#path-1"></use>
                </mask>
                <g id="Clip-2"></g>
                <path d="M27.5881655,0 L2.19906207,0 C0.98582069,0 -4.13793103e-05,0.968333333 -4.13793103e-05,2.16229167 L-4.13793103e-05,27.8352083 C-4.13793103e-05,29.0302083 0.98582069,30 2.19906207,30 L27.5881655,30 C28.8034759,30 29.7934759,29.0302083 29.7934759,27.8352083 L29.7934759,2.16229167 C29.7934759,0.968333333 28.8034759,0 27.5881655,0" id="Fill-1" fill="#007AB5" mask="url(#mask-2)"></path>
            </g>
            <path d="M6.62776552,4.13025 C8.04045517,4.13025 9.18852414,5.28629167 9.18852414,6.70920833 C9.18852414,8.13358333 8.04045517,9.29004167 6.62776552,9.29004167 C5.21135172,9.29004167 4.06493793,8.13358333 4.06493793,6.70920833 C4.06493793,5.28629167 5.21135172,4.13025 6.62776552,4.13025 L6.62776552,4.13025 Z M4.41707586,25.564 L8.83617931,25.564 L8.83617931,11.247125 L4.41707586,11.247125 L4.41707586,25.564 Z" id="Fill-4" fill="#FEFEFE"></path>
            <path d="M11.6078276,11.2471458 L15.8467241,11.2471458 L15.8467241,13.2031875 L15.9054828,13.2031875 C16.4951379,12.0775625 17.9367931,10.8908958 20.0864483,10.8908958 C24.5612069,10.8908958 25.3875517,13.8561042 25.3875517,17.7106875 L25.3875517,25.5640208 L20.9715517,25.5640208 L20.9715517,18.6017292 C20.9715517,16.9406875 20.9411379,14.8052708 18.6752069,14.8052708 C16.3757586,14.8052708 16.0236207,16.6140208 16.0236207,18.4815208 L16.0236207,25.5640208 L11.6078276,25.5640208 L11.6078276,11.2471458 Z" id="Fill-6" fill="#FEFEFE"></path>
        </g>
    </g>
</svg>