<svg xmlns="http://www.w3.org/2000/svg" viewBox="0 0 24 24"><path fill="#03A9F4" fill-rule="nonzero" d="M23 4.247a9.383 9.383 0 0 1-2.713.76 4.814 4.814 0 0 0 2.077-2.658 9.33 9.33 0 0 1-2.998 1.164A4.658 4.658 0 0 0 15.926 2c-2.607 0-4.72 2.148-4.72 4.796 0 .375.043.74.124 1.094-3.921-.202-7.4-2.114-9.726-5.015A4.83 4.83 0 0 0 .965 5.29c0 1.665.831 3.13 2.099 3.994a4.713 4.713 0 0 1-2.14-.599v.057c0 2.326 1.628 4.264 3.784 4.705-.394.11-.81.172-1.24.172-.304 0-.602-.036-.889-.089.6 1.902 2.343 3.291 4.407 3.333A9.384 9.384 0 0 1 0 18.848 13.24 13.24 0 0 0 7.234 21c8.679 0 13.427-7.31 13.427-13.65 0-.208-.007-.415-.016-.619A9.416 9.416 0 0 0 23 4.247"/></svg>
