<svg viewBox="0 0 30 30" xmlns="http://www.w3.org/2000/svg">
    <g fill-rule="nonzero" fill="none">
        <path d="M26.25 30H3.75C1.68 30 0 28.32 0 26.25V3.75C0 1.68 1.68 0 3.75 0h22.5C28.32 0 30 1.68 30 3.75v22.5c0 2.07-1.68 3.75-3.75 3.75z"
              fill="#1DA1F2"/>
        <path d="M11.52 22.62c7.072 0 10.942-5.865 10.942-10.943 0-.165 0-.33-.007-.495a7.835 7.835 0 001.92-1.995c-.69.308-1.433.51-2.212.608a3.87 3.87 0 001.695-2.13 7.65 7.65 0 01-2.446.93 3.839 3.839 0 00-2.804-1.215 3.85 3.85 0 00-3.848 3.847c0 .3.038.593.098.878a10.921 10.921 0 01-7.928-4.02 3.856 3.856 0 001.193 5.137 3.89 3.89 0 01-1.74-.48v.053c0 1.86 1.327 3.42 3.082 3.772a3.75 3.75 0 01-1.012.135c-.248 0-.488-.022-.72-.067a3.846 3.846 0 003.592 2.67 7.714 7.714 0 01-4.777 1.65 7.4 7.4 0 01-.915-.053 10.94 10.94 0 005.887 1.718"
              fill="#FFF"/>
    </g>
</svg>
